<svg width="155" height="155" viewBox="0 0 155 155" fill="none" xmlns="http://www.w3.org/2000/svg">
<g clip-path="url(#clip0_2_26)">
<rect width="155" height="155" rx="32" fill="white"/>
<mask id="mask0_2_26" style="mask-type:alpha" maskUnits="userSpaceOnUse" x="0" y="0" width="155" height="155">
<rect width="155" height="155" rx="32" fill="white"/>
</mask>
<g mask="url(#mask0_2_26)">
<path d="M149.873 162.958C135.577 159.632 121.14 158.761 106.434 159.352C86.4275 160.156 66.2184 163.221 45.6845 169.445C32.9768 173.296 20.2357 178.752 7.46455 185.254C4.22113 186.905 1.3031 187.045 -0.733788 182.921C-4.31721 175.666 -2.02176 162.742 3.98572 157.046C8.94653 152.342 13.9738 151.042 18.9607 149.387C40.5726 142.214 61.7995 139.267 82.7829 138.42C100.468 137.706 118.015 138.141 134.929 142.122C146.381 144.818 157.798 147.833 168.174 154.988C170.779 156.784 173.31 158.828 175.346 162.071C179.329 168.418 178.309 177.624 172.791 185.148C170.445 188.347 167.967 190.536 165.403 189.748C164.532 189.48 163.574 189.385 163.525 187.341C163.477 185.305 164.105 183.696 165.09 182.164C170.059 174.429 170.089 173.46 165.175 169.627C160.532 166.006 155.102 165.368 149.873 162.958Z" fill="url(#paint0_linear_2_26)"/>
<path d="M147.696 72.782C133.464 69.1291 118.768 69.5651 103.607 72.4604C82.9795 76.3995 61.8503 84.1144 39.9764 97.1101C26.4394 105.153 12.6593 115.86 -1.28796 128.305C-4.83005 131.466 -7.84156 132.078 -9.39376 125.505C-12.1245 113.94 -8.08647 92.2102 -1.18216 81.9815C4.51923 73.5351 9.84542 70.7248 15.1764 67.3302C38.2798 52.6195 60.4376 44.9685 82.0722 40.8308C100.306 37.3434 118.249 35.7781 135.08 40.1775C146.476 43.1564 157.794 46.6679 167.506 57.1819C169.944 59.8216 172.275 62.8812 173.94 67.9941C177.199 77.9997 174.954 93.3986 168.314 106.595C165.491 112.205 162.663 116.157 160.136 115.185C159.278 114.854 158.307 114.821 158.524 111.438C158.739 108.068 159.593 105.318 160.802 102.649C166.908 89.1744 167.064 87.5643 162.522 81.8485C158.232 76.4488 152.745 76.0985 147.696 72.782Z" fill="#EEEEEE"/>
</g>
<path d="M56.683 34.7256C57.3147 35.8618 56.8252 36.8496 56.6027 37.7558C55.0279 44.1686 57.8764 48.7848 62.5667 52.4839C66.873 55.8802 72.1105 57.0193 77.3604 57.9707C78.564 58.1887 79.0985 57.4864 79.4897 56.4316C82.5912 48.0709 86.4186 40.0608 91.1943 32.5486C95.7004 25.4607 100.94 19.0434 108.628 15.2473C111.993 13.586 115.609 12.65 119.394 13.1222C128.001 14.1959 130.535 21.0186 129.91 27.9411C129.275 34.9691 125.581 40.5306 121.452 45.8432C113.99 55.4442 104.456 62.0961 93.0033 65.9347C91.9123 66.3003 91.0635 66.7443 90.6007 68.0083C85.5208 81.8825 79.789 95.4435 71.5218 107.755C71.2956 108.091 71.1523 108.485 70.8717 109.051C73.9888 110.859 77.3325 111.812 80.6094 112.942C86.0641 114.822 91.5669 115.637 97.2589 114.094C98.6994 113.703 100.026 113.121 101.278 112.342C103.224 111.131 104.477 111.712 104.918 114.066C105.95 119.567 103.197 124.674 98.0179 126.936C93.3033 128.994 88.4781 128.926 83.6761 127.501C77.2593 125.598 71.4488 122.307 65.777 118.82C64.3128 117.92 63.5502 118.009 62.415 119.143C58.273 123.279 53.4815 126.425 47.8391 128.002C42.6744 129.447 37.6055 129.479 32.5492 127.058C24.0129 122.971 24.2437 111.059 30.7964 105.95C34.8126 102.818 39.4231 101.724 44.3607 101.883C48.8419 102.027 53.2689 102.726 57.5052 104.239C59.2993 104.88 60.0889 104.295 60.9533 102.76C65.9245 93.9303 69.3467 84.4334 72.8104 74.9537C73.5314 72.9803 74.4329 71.0497 74.7168 68.809C72.955 67.7583 70.9254 68.077 69.0658 67.641C61.4124 65.8468 54.6933 62.6608 50.3504 55.5775C46.5668 49.4063 47.3164 40.634 52.2513 35.5299C53.4379 34.3025 54.7526 33.0742 56.683 34.7256ZM112.251 43.8438C113.479 42.3072 114.808 40.8411 115.915 39.2203C118.7 35.1464 121.417 30.9942 121.433 25.772C121.443 22.3486 118.969 20.8352 115.91 22.2566C113.08 23.5716 111.159 25.8767 109.353 28.3279C105.203 33.9585 102.04 40.1545 99.1779 46.5177C97.9812 49.178 96.9073 51.8948 95.5975 55.0148C102.36 52.6907 107.347 48.5967 112.251 43.8438ZM36.588 110.707C33.6269 112.451 32.6944 114.069 33.1983 116.588C33.6636 118.915 35.8223 120.605 38.7936 120.837C40.1081 120.94 41.462 121.001 42.7568 120.804C47.8214 120.033 51.2845 116.878 54.349 112.951C52.2314 111.192 49.8886 110.851 47.7099 110.266C44.1155 109.303 40.4417 108.955 36.588 110.707Z" fill="url(#paint1_linear_2_26)"/>
</g>
<defs>
<linearGradient id="paint0_linear_2_26" x1="95.2104" y1="134.179" x2="81.8167" y2="201.867" gradientUnits="userSpaceOnUse">
<stop stop-color="#10B981"/>
<stop offset="1" stop-color="#06B6D4"/>
</linearGradient>
<linearGradient id="paint1_linear_2_26" x1="78" y1="13" x2="78" y2="129" gradientUnits="userSpaceOnUse">
<stop stop-color="#10B981"/>
<stop offset="1" stop-color="#06B6D4"/>
</linearGradient>
<clipPath id="clip0_2_26">
<rect width="155" height="155" fill="white"/>
</clipPath>
</defs>
</svg>
