<svg width="321" height="192" viewBox="0 0 321 192" fill="none" xmlns="http://www.w3.org/2000/svg">
<g clip-path="url(#clip0_2_8)">
<path d="M137.359 124.24C137.355 122.575 137.355 121.152 137.355 119.297C135.07 120.653 134.218 122.693 132.917 124.263C129.805 128.021 126.103 130.905 121.575 132.68C115.462 135.077 109.518 133.617 106.177 128.755C104.226 125.914 103.922 122.533 104.015 119.189C104.209 112.168 106.369 105.578 108.811 99.0948C112.107 90.3467 115.793 81.757 119.517 73.1815C120.654 70.5628 122.327 68.9407 125.081 68.8419C128.168 68.731 131.251 69.2436 133.462 71.6885C134.648 73.0009 134.369 74.6719 133.668 76.2701C130.96 82.4427 128.272 88.6247 125.622 94.8224C122.903 101.179 120.192 107.536 119.094 114.446C118.74 116.678 119.101 118.669 120.856 120.028C122.718 121.469 124.663 120.532 126.356 119.435C131.212 116.29 134.05 111.432 136.763 106.567C142.329 96.5844 146.809 86.0734 151.407 75.6237C154.152 69.3849 156.972 67.9933 162.959 69.8362C166.141 70.8157 167.241 72.5323 166.161 75.7579C165.081 78.9837 163.549 82.0569 162.23 85.2034C158.55 93.9798 154.234 102.499 151.617 111.704C150.976 113.962 150.385 116.215 150.63 118.593C150.862 120.856 151.955 121.637 154.098 120.879C156.821 119.916 158.739 117.847 160.465 115.662C166.209 108.393 170.04 100.086 173.435 91.5328C175.823 85.5196 178.376 79.5719 180.898 73.6134C183.184 68.2129 189.537 66.7739 194.063 70.586C195.46 71.7622 195.449 73.1634 194.85 74.7367C193.804 77.4843 192.168 80.0101 191.609 83.3045C193.15 82.7568 193.75 81.5359 194.57 80.6131C199.461 75.1128 204.7 70.1233 212.155 68.299C220.969 66.1419 227.388 72.2331 225.727 81.1531C224.253 89.0689 220.186 95.9086 216.74 103.006C214.585 107.445 212.062 111.716 210.877 116.582C210.478 118.22 210.048 119.873 211.629 121.022C213.104 122.093 214.596 121.275 215.883 120.447C221.115 117.081 224.532 112.13 227.357 106.758C232.846 96.3166 236.721 85.1643 241.318 74.3315C243.827 68.4186 250.46 66.5775 255.343 70.8045C257.35 72.542 256.668 74.558 255.837 76.4828C254.163 80.3594 252.362 84.1805 250.633 88.0333C247.102 95.9011 243.456 103.727 241.125 112.067C240.646 113.782 240.29 115.57 240.185 117.343C239.997 120.502 241.726 121.631 244.616 120.416C247.794 119.08 250.142 116.712 252.123 114.017C257.988 106.041 263.229 97.6621 267.833 88.8919C268.873 86.9109 269.76 84.8491 270.783 82.859C271.453 81.5566 271.285 80.7696 270.111 79.656C265.627 75.4021 264.344 69.9552 265.659 64.0973C266.987 58.1785 270.493 53.8927 276.647 52.3683C282.969 50.8026 287.427 54.3378 287.553 60.9026C287.631 64.9118 286.307 68.6356 285.003 72.594C289.362 73.4709 293.333 72.3907 297.298 71.4555C299.484 70.9399 301.574 70.1097 303.604 69.1272C306.086 67.9258 307.939 68.5796 310.582 71.4145C312.348 73.3081 313.246 75.4697 311.623 77.7326C309.061 81.304 306.218 84.6723 303.528 88.1521C298.167 95.0842 293.324 102.317 291.228 110.995C290.507 113.977 289.799 117.252 292.616 119.527C295.615 121.95 298.939 120.962 302.009 119.411C307.763 116.503 311.62 111.691 314.71 106.201C315.615 104.594 316.447 103.24 318.638 103.962C320.968 104.73 321.173 106.5 320.913 108.516C320.699 110.183 319.692 111.496 318.843 112.862C314.313 120.149 308.712 126.383 301.074 130.514C296.419 133.032 291.54 134.633 286.109 133.759C279.474 132.693 275.649 128.39 275.419 121.654C275.141 113.515 278.036 106.34 282.09 99.5222C285.035 94.5687 288.503 89.9833 292.092 85.4858C292.465 85.0186 292.923 84.5183 292.65 83.5645C288.633 84.1471 284.567 84.6115 280.468 84.0178C279.311 83.85 278.738 84.7635 278.257 85.677C272.941 95.79 266.857 105.447 260.593 114.981C256.228 121.625 251.311 127.811 244.006 131.569C241.722 132.743 239.299 133.36 236.783 133.541C232.217 133.869 228.33 131.169 226.932 126.762C226.446 125.229 226.136 123.639 225.682 121.819C223.444 123.875 221.349 125.911 219.136 127.808C215.466 130.956 211.451 133.479 206.427 133.651C200.129 133.866 196.265 130.198 196.14 123.852C196 116.663 198.456 110.095 201.22 103.626C203.375 98.5853 206.061 93.7779 207.847 88.5774C208.193 87.5704 208.464 86.4935 208.512 85.437C208.63 82.8764 207.252 81.8215 204.742 82.477C201.539 83.3134 199.299 85.6364 197.159 87.8942C191.047 94.3423 186.661 101.994 182.471 109.762C179.434 115.391 176.9 121.234 174.827 127.287C173.015 132.577 166.337 134.603 161.71 131.309C160.131 130.185 159.719 128.658 160.921 126.161C158.253 128.074 156.311 129.486 154.348 130.868C152.331 132.287 150.11 133.131 147.642 133.46C141.315 134.304 138.27 131.684 137.359 124.24ZM279.912 62.8796C280.169 61.7949 280.275 60.7577 279.087 60.1198C274.985 62.2068 273.984 67.1312 277.298 69.5268C278.745 67.6818 279.618 65.6238 279.912 62.8796Z" fill="white"/>
<path d="M39.2389 27.7188C40.0466 29.1685 39.4207 30.4288 39.1361 31.5849C37.1222 39.7668 40.765 45.6564 46.7632 50.3761C52.2703 54.7093 58.9682 56.1626 65.6821 57.3763C67.2213 57.6546 67.9048 56.7585 68.4051 55.4127C72.3714 44.7456 77.2661 34.5259 83.3735 24.9413C89.1361 15.8981 95.8362 7.71053 105.668 2.86728C109.971 0.747634 114.597 -0.446564 119.437 0.15589C130.444 1.52577 133.685 10.2306 132.885 19.0627C132.073 28.0295 127.349 35.1253 122.069 41.9033C112.526 54.153 100.334 62.6399 85.6869 67.5374C84.2917 68.0039 83.2063 68.5703 82.6144 70.183C76.1179 87.8846 68.7879 105.187 58.2153 120.894C57.9261 121.324 57.7428 121.826 57.384 122.548C61.3703 124.855 65.6463 126.071 69.8371 127.512C76.8128 129.911 83.85 130.951 91.1292 128.982C92.9713 128.483 94.6679 127.741 96.2687 126.747C98.757 125.202 100.36 125.943 100.924 128.946C102.244 135.965 98.7233 142.481 92.0998 145.366C86.0706 147.992 79.8998 147.905 73.7588 146.088C65.5528 143.659 58.122 139.46 50.8687 135.012C48.9961 133.863 48.021 133.977 46.5692 135.423C41.2722 140.701 35.1446 144.714 27.9288 146.727C21.324 148.57 14.8416 148.611 8.37548 145.522C-2.54118 140.308 -2.24605 125.11 6.13386 118.591C11.2699 114.595 17.166 113.2 23.4805 113.403C29.2113 113.587 34.8727 114.478 40.2903 116.408C42.5847 117.226 43.5944 116.48 44.6999 114.521C51.0574 103.256 55.4337 91.1392 59.8633 79.0444C60.7854 76.5266 61.9383 74.0634 62.3013 71.2046C60.0482 69.864 57.4527 70.2706 55.0746 69.7144C45.287 67.4253 36.6943 63.3604 31.1404 54.3231C26.3017 46.4494 27.2604 35.2572 33.5714 28.745C35.0889 27.1791 36.7701 25.6119 39.2389 27.7188ZM110.302 39.3524C111.873 37.392 113.572 35.5213 114.988 33.4535C118.549 28.2557 122.024 22.9581 122.044 16.2954C122.057 11.9276 118.893 9.99664 114.981 11.8102C111.362 13.4879 108.906 16.4289 106.595 19.5562C101.288 26.7402 97.2438 34.6454 93.5833 42.7639C92.0529 46.1581 90.6795 49.6243 89.0044 53.6051C97.6532 50.6399 104.03 45.4165 110.302 39.3524ZM13.5404 124.661C9.75366 126.886 8.5611 128.95 9.20546 132.164C9.80063 135.133 12.5612 137.289 16.361 137.586C18.0421 137.717 19.7735 137.795 21.4294 137.543C27.9062 136.559 32.335 132.534 36.2541 127.523C33.5459 125.279 30.5498 124.844 27.7636 124.099C23.167 122.869 18.4687 122.426 13.5404 124.661Z" fill="white"/>
<path d="M227.709 165.938C213.04 165.691 198.708 166.679 184.397 168.421C164.927 170.791 145.697 174.306 126.762 179.425C115.043 182.592 103.604 186.562 92.3374 191.055C89.4762 192.196 86.6409 192.553 83.8422 190.701C78.9186 187.444 78.6617 180.787 83.4492 177.361C87.4026 174.532 92.082 173.39 96.6526 172.075C116.461 166.378 136.712 162.822 157.132 160.334C174.342 158.238 191.64 156.726 209.005 157.042C220.763 157.256 232.547 157.631 244.115 160.17C247.019 160.808 249.899 161.576 252.525 162.989C257.664 165.755 258.452 170.436 254.499 174.724C252.819 176.546 250.812 177.879 248.144 177.74C247.238 177.692 246.279 177.739 245.835 176.727C245.392 175.719 245.696 174.856 246.365 173.997C249.738 169.658 249.579 169.173 244.014 167.75C238.757 166.405 233.306 166.623 227.709 165.938Z" fill="white"/>
<path d="M263.64 57.695C261.111 59.0214 258.826 60.2773 255.966 59.9464C249.04 59.1448 248.02 55.4378 248 49.9248C247.975 43.1686 253.515 37.5885 260.078 37.0286C264.764 36.6288 268.693 40.4724 268.97 45.3593C269.256 50.4114 267.497 54.393 263.64 57.695Z" fill="white"/>
</g>
<defs>
<clipPath id="clip0_2_8">
<rect width="321" height="192" fill="white"/>
</clipPath>
</defs>
</svg>
